<svg width="1440" height="1980" viewBox="0 0 1440 1980" fill="none" xmlns="http://www.w3.org/2000/svg">
<g id="Plugin / file cover - 1">
<g id="group-idkwtfisthis">
<path id="block-A" d="M988.5 855.5L987.5 577.5L665.5 581.5L674.5 877.5L988.5 855.5Z" fill="#90B886" stroke="black"/>
<path id="building-AC" d="M713.5 635.5H706.5V613.5H759.5V631.5H803.5V669.5H768.5V702.5H775.5V733.5H679.5V681.5H701.5V659.5H708.5V655.5H713.5V635.5Z" fill="#E4DDCB" stroke="black"/>
<path id="building-AD" d="M851.5 671.5V630.5H887.5V610.5H945.5V629.5H966.5V669.5H943.5V698.5H910.5V671.5H851.5Z" fill="#E4DDCB" stroke="black"/>
<path id="building-TL" d="M738.5 864.5H682.5V783.5H714.5V778.5H747.5V786.5H783.5V807.5H813.5V849.5H738.5V864.5Z" fill="#E4DDCB" stroke="black"/>
<path id="building-AS" d="M960.5 853.5V738.5H934.5V719.5C882 719.5 833.5 762.5 833.5 825.5H851.5V853.5H960.5Z" fill="#E4DDCB" stroke="black"/>
</g>
<g id="group-management">
<path id="block-management" d="M642.5 796.5L636.5 581.5L378.5 583.5L386 809.5L642.5 796.5Z" fill="#91D2E4" stroke="black"/>
<path id="building-MD" d="M386.5 677.5V637.5H488.5V677.5H386.5Z" fill="#E4DDCB" stroke="black"/>
<path id="building-MB" d="M395.5 795.5V698.5H419.5V753.5H466V764.5H483.5V795.5H395.5Z" fill="#E4DDCB" stroke="black"/>
<path id="building-MA" d="M498.5 793.5V774.5H519.5V752.5H529.5V724.5H521.5V703.5H564.5V695.5H617.5V710.5H609.5V724.5H585.5V753.5H594.5V762.5H611.5V793.5H498.5Z" fill="#E4DDCB" stroke="black"/>
</g>
<g id="group-engineering">
<path id="block-engineering" d="M1268.5 574.5L1016.5 577.5L1017.5 853.5L1268.5 835.5V574.5Z" fill="#C29DBF" stroke="black"/>
<path id="building-EB" d="M1168.5 617.5V591.5H1225.5V576.5H1237.5L1246.5 590.5L1245.5 608.5H1231.5V638.5C1237.5 638.5 1254.44 648 1254.5 663.5C1254.56 679 1241.5 688.5 1228.5 688.5C1218.5 688.5 1203.5 680 1203.5 664.5H1188.5V638.5H1213.5V617.5H1168.5Z" fill="#E4DDCB" stroke="black"/>
<path id="building-EN" d="M1187.5 725.5V688.5H1254.5V725.5H1187.5Z" fill="#E4DDCB" stroke="black"/>
<path id="building-EC" d="M1189.5 758.5V729.5H1255.5V833.5H1185.5V812.5H1210.5V758.5H1189.5Z" fill="#E4DDCB" stroke="black"/>
<path id="building-ES" d="M1184.5 836.5V795.5H1079.5V836.5H1184.5Z" fill="#E4DDCB" stroke="black"/>
<path id="building-EL" d="M1078.5 831.5V811.5H1076.5V761.5H1109.5V726.5H1027.5V831.5H1078.5Z" fill="#E4DDCB" stroke="black"/>
<path id="building-EM" d="M1026.5 678.5V588.5H1161.5V620.5H1087.5V654.5H1104.5V647.5H1161.5V678.5H1026.5Z" fill="#E4DDCB" stroke="black"/>
</g>
<g id="group-haas">
<path id="block-haas" d="M989.5 1018.5L678.5 1019.5L675.5 916.5L988.5 894.5L989.5 1018.5Z" fill="#DBBF5E" stroke="black"/>
<path id="building-DS" d="M855.5 944.5V925.5H948.5V973.5H940.5V992.5H976.5V1015.5H908.5V1007.5H884.5V998.5H846.5V967.5H864.5V944.5H855.5Z" fill="#E4DDCB" stroke="black"/>
<path id="building-DH" d="M702.5 962.5V944.5H793.5V961.5H812.5V990.5H806.5V1004.5H716.5V989.5H710.5V962.5H702.5Z" fill="#E4DDCB" stroke="black"/>
</g>
<g id="group-design">
<path id="block-design" d="M684.5 1227.5L678.5 1019.5L989.5 1018.5L990.5 1220.5L684.5 1227.5Z" fill="#CF8761" stroke="black"/>
<g id="building-DA">
<path d="M962.5 1034.5V1081.5H914.5L911.5 1093.5H882.5L878.5 1097.5H862.5V1072.5C861 1082.5 847.5 1091.5 847.5 1070.5C847.5 1053.25 859.979 1044.1 862.5 1059.11V1045.5H928.5L936.5 1034.5H962.5Z" fill="#E4DDCB"/>
<path d="M862.5 1072.5V1097.5H878.5L882.5 1093.5H911.5L914.5 1081.5H962.5V1034.5H936.5L928.5 1045.5H862.5V1072.5ZM862.5 1072.5C861 1082.5 847.5 1091.5 847.5 1070.5C847.5 1049.5 866 1040.5 862.5 1072.5Z" stroke="black"/>
</g>
<path id="building-DC" d="M705.5 1064.5V1036.5H732.5V1032.5H748.5V1025.5H772.5V1032.5H809.5V1076.5H785.5V1080.5H765.5V1098.5H776.5V1146.5H765.5V1165.5H784.5V1169.5H809.5V1208.5H784.5V1212.5H765.5V1215.5H733.5V1219.5H704.5V1212.5H693.5V1174.5H726.5V1142.5H686.5C684 1128.5 684 1117.5 686.5 1101.5H726.5V1064.5H705.5Z" fill="#E4DDCB" stroke="black"/>
</g>
<g id="group-sports field">
<path id="block-sports field" d="M1288.5 1432.5L1020.5 1437.5L1017.5 892.5L1372.5 867.5L1318.5 1412.5H1290.5L1288.5 1432.5Z" fill="#BFDC8C" stroke="black"/>
<path id="building-PD" d="M1046.5 1324.5V1254.5H1064.5V1242.5H1143.5V1254.5H1160.5V1324.5H1046.5Z" fill="#E4DDCB" stroke="black"/>
<path id="building-ASP" d="M1181.5 1312.5V1239.5H1284.5V1312.5H1181.5Z" fill="#E4DDCB" stroke="black"/>
</g>
<g id="group-dormitory">
<path id="building-dormitory G" d="M565.5 1450.5V1432.5H582.5V1411.5H611.5V1432.5H627.5V1450.5H565.5Z" fill="#E4DDCB" stroke="black"/>
<path id="building-dormitory F" d="M717.5 1663.5H696.5V1691.5H812.5V1663.5H795.5V1651.5H774.5V1663.5H738.5V1651.5H717.5V1663.5Z" fill="#E4DDCB" stroke="black"/>
<path id="building-dormitory E" d="M699.5 1633.5V1613.5H710.5V1599.5H770.5V1613.5H784.5V1633.5H761.5V1628.5H721.5V1633.5H699.5Z" fill="#E4DDCB" stroke="black"/>
<g id="building-dormitory D">
<path d="M560.5 1629.5V1611.5H614.5V1629.5H597.5V1633.5H575.5V1629.5H560.5Z" fill="#E4DDCB"/>
<path d="M620.5 1634.5V1606.5H644.5V1616.5L652.5 1624.5H658.5V1645.5H631.5L620.5 1634.5Z" fill="#E4DDCB"/>
<path d="M650.5 1654.5H628.5V1671.5H623.5V1666.5H598.5V1671.5H590.5V1660.5H564.5V1683.5H584.5V1690.5H638.5V1676.5H650.5V1654.5Z" fill="#E4DDCB"/>
<path d="M560.5 1629.5V1611.5H614.5V1629.5H597.5V1633.5H575.5V1629.5H560.5Z" stroke="black"/>
<path d="M620.5 1634.5V1606.5H644.5V1616.5L652.5 1624.5H658.5V1645.5H631.5L620.5 1634.5Z" stroke="black"/>
<path d="M650.5 1654.5H628.5V1671.5H623.5V1666.5H598.5V1671.5H590.5V1660.5H564.5V1683.5H584.5V1690.5H638.5V1676.5H650.5V1654.5Z" stroke="black"/>
</g>
<g id="building-dormitory C">
<path d="M558.5 1502.5V1481.5H574.5V1477.5H580.5V1473.5H625.5V1477.5H630.5V1482.5H643.5V1509.5H622.5V1491.5H614.5V1496.5H591.5V1491.5H581.5V1502.5H558.5Z" fill="#E4DDCB"/>
<path d="M632.5 1527.5V1518.5H657.5V1547.5L645.5 1559.5H617.5V1536.5H623.5L632.5 1527.5Z" fill="#E4DDCB"/>
<path d="M610.5 1559.5V1540.5H592.5V1536.5H569.5V1540.5H553.5V1559.5H610.5Z" fill="#E4DDCB"/>
<path d="M558.5 1502.5V1481.5H574.5V1477.5H580.5V1473.5H625.5V1477.5H630.5V1482.5H643.5V1509.5H622.5V1491.5H614.5V1496.5H591.5V1491.5H581.5V1502.5H558.5Z" stroke="black"/>
<path d="M632.5 1527.5V1518.5H657.5V1547.5L645.5 1559.5H617.5V1536.5H623.5L632.5 1527.5Z" stroke="black"/>
<path d="M610.5 1559.5V1540.5H592.5V1536.5H569.5V1540.5H553.5V1559.5H610.5Z" stroke="black"/>
</g>
<g id="building-dormitory B">
<path d="M696.5 1546.5V1523.5H716.5V1540.5H721.5V1537.5H744.5V1540.5H753.5V1530.5H773.5V1548.5H760.5V1556.5H706.5V1546.5H696.5Z" fill="#E4DDCB"/>
<path d="M710.5 1509.5V1488.5H726.5V1484.5H731.5V1480.5H773.5V1484.5H779.5V1487.5H794.5V1507.5H772.5V1497.5H763.5V1502.5H741.5V1497.5H733.5V1509.5H710.5Z" fill="#E4DDCB"/>
<path d="M822.5 1516.5H799.5V1525.5L790.5 1534.5H784.5V1555.5H810.5L822.5 1543.5V1516.5Z" fill="#E4DDCB"/>
<path d="M696.5 1546.5V1523.5H716.5V1540.5H721.5V1537.5H744.5V1540.5H753.5V1530.5H773.5V1548.5H760.5V1556.5H706.5V1546.5H696.5Z" stroke="black"/>
<path d="M710.5 1509.5V1488.5H726.5V1484.5H731.5V1480.5H773.5V1484.5H779.5V1487.5H794.5V1507.5H772.5V1497.5H763.5V1502.5H741.5V1497.5H733.5V1509.5H710.5Z" stroke="black"/>
<path d="M822.5 1516.5H799.5V1525.5L790.5 1534.5H784.5V1555.5H810.5L822.5 1543.5V1516.5Z" stroke="black"/>
</g>
<g id="building-dormitory A">
<path d="M864.5 1544.5V1516.5H888.5V1525.5L897.5 1534.5H903.5V1556.5H876.5L864.5 1544.5Z" fill="#E4DDCB"/>
<path d="M908.5 1546.5V1527.5H929.5V1538.5H939.5V1535.5H961.5V1538.5H967.5V1520.5H988.5V1544.5H977.5V1554.5H922.5V1546.5H908.5Z" fill="#E4DDCB"/>
<path d="M970.5 1506.5V1485.5H954.5V1480.5H950.5V1477.5H906.5V1480.5H900.5V1484.5H885.5V1505.5H908.5V1494.5H917.5V1499.5C925 1499.67 940.1 1499.9 940.5 1499.5C940.9 1499.1 940.667 1496 940.5 1494.5H948.5V1506.5H970.5Z" fill="#E4DDCB"/>
<path d="M864.5 1544.5V1516.5H888.5V1525.5L897.5 1534.5H903.5V1556.5H876.5L864.5 1544.5Z" stroke="black"/>
<path d="M908.5 1546.5V1527.5H929.5V1538.5H939.5V1535.5H961.5V1538.5H967.5V1520.5H988.5V1544.5H977.5V1554.5H922.5V1546.5H908.5Z" stroke="black"/>
<path d="M970.5 1506.5V1485.5H954.5V1480.5H950.5V1477.5H906.5V1480.5H900.5V1484.5H885.5V1505.5H908.5V1494.5H917.5V1499.5C925 1499.67 940.1 1499.9 940.5 1499.5C940.9 1499.1 940.667 1496 940.5 1494.5H948.5V1506.5H970.5Z" stroke="black"/>
</g>
</g>
<path id="building-FB" d="M579.5 1344.5V1301.5H650.5V1344.5H579.5Z" fill="#E4DDCB" stroke="black"/>
<path id="building-DW" d="M582.5 1273.5V1216.5H576.5V1193.5H516.5V1297.5H576.5V1273.5H582.5Z" fill="#E4DDCB" stroke="black"/>
<path id="building-GA" d="M731.5 1319.5V1265.5H773.5V1272.5H783.5C788.397 1273.94 790.268 1275.81 792.5 1280.5H865.5C867.334 1275.55 869.199 1273.29 874.5 1270.5H894.5V1265.5H957.5V1325.5H911.5V1335.5C909.598 1339.13 907.979 1340.57 904.5 1342.5H883.5C879.948 1340.27 878.604 1338.53 877.5 1334.5C866.747 1334.14 863.747 1331.26 862.5 1322.5H794.5V1331.5H741.5V1319.5H731.5Z" fill="#E4DDCB" stroke="black"/>
<path id="building-RE" d="M871.5 1377.5H816.5V1437.5H915.5V1426.5H958.5V1377.5H915.5V1368.5H871.5V1377.5Z" fill="#E4DDCB" stroke="black"/>
<path id="building-VT" d="M573.5 1025.5V967.5H645.5V1025.5H573.5Z" fill="#E4DDCB" stroke="black"/>
<path id="building-AI" d="M1127.5 1527.5L1129.5 1474.5H1223.5L1259.5 1509.5L1281.5 1511.5L1278.5 1542.5L1127.5 1527.5Z" fill="#E4DDCB" stroke="black"/>
<path id="building-ST" d="M1234.5 1631.5L1239.5 1571.5L1279.5 1575.5L1270.5 1666.5L1228.5 1661.5V1657.5L1219.5 1656.5L1223.5 1630.5L1234.5 1631.5Z" fill="#E4DDCB" stroke="black"/>
<g id="building-CM">
<path d="M1301.5 736.5V664.5H1332.5V736.5H1301.5Z" fill="#E4DDCB"/>
<path d="M1352.5 755.5L1357.5 708.5L1385.5 711.5L1379.5 758.5L1352.5 755.5Z" fill="#E4DDCB"/>
<path d="M1385.5 706.5L1394.5 630.5L1366.5 627.5L1358.5 702.5L1385.5 706.5Z" fill="#E4DDCB"/>
<path d="M1301.5 736.5V664.5H1332.5V736.5H1301.5Z" stroke="black"/>
<path d="M1352.5 755.5L1357.5 708.5L1385.5 711.5L1379.5 758.5L1352.5 755.5Z" stroke="black"/>
<path d="M1385.5 706.5L1394.5 630.5L1366.5 627.5L1358.5 702.5L1385.5 706.5Z" stroke="black"/>
</g>
</g>
</svg>
